<svg xmlns="http://www.w3.org/2000/svg" width="200" height="50" viewBox="0 0 200 50"><rect width="100%" height="100%" fill="#EEE"/><path fill="#31343C" d="M50.335 15.255c-2.7 0-5.16 1.31-5.16 4.2 0 2.56 1.91 3.86 4.1 5.25 2.03 1.3 3.45 2.39 3.45 4.28 0 1.72-1.24 2.57-2.85 2.57-2.94 0-4-2.71-4.19-5.77h-.53c0 3.66-.02 5.13-.09 6.21h.53c.09-.67.2-1.01.51-1.01.18 0 .41.09.78.32.78.42 1.79.86 3.7.86 3.09 0 5.7-1.45 5.7-4.49 0-2.49-1.71-3.74-3.88-5.18-2.58-1.73-3.98-2.49-3.98-4.34 0-1.46 1.06-2.35 2.53-2.35 2.46 0 3.75 2.51 3.91 4.9h.52c0-3.23.05-4.33.13-5.24h-.53c-.1.66-.21 1.01-.52 1.01-.2 0-.4-.1-.77-.33-.72-.43-1.56-.89-3.36-.89Zm12.01-1.41c-.96.22-2.07.31-3.36.31-.45 0-.93-.02-1.42-.06v.48c1.11 0 1.47.65 1.47 2.02v13.11c0 1.28-.4 1.65-1.47 1.65v.48c.61-.02 1.99-.09 3.17-.09 1.12 0 2.31.07 2.85.09v-.48c-.91 0-1.24-.37-1.24-1.65v-6.42c0-1.56 1.02-2.66 2.29-2.66 1.14 0 1.41.78 1.41 1.92v7.16c0 1.28-.32 1.65-1.23 1.65v.48c.56-.02 1.8-.09 2.98-.09 1.13 0 2.45.07 3.04.09v-.48c-1.07 0-1.48-.37-1.48-1.65v-6.2c0-1.56-.21-2.41-.71-2.99-.48-.54-1.23-.9-2.54-.9-1.62 0-3 .57-3.76 2.14Zm15.27 5.77c-3.3 0-5.63 1.73-5.63 6.28 0 4.56 2.33 6.27 5.63 6.27 3.31 0 5.64-1.71 5.64-6.27 0-4.55-2.33-6.28-5.64-6.28Zm0 .46c1.26 0 2.17 1.71 2.17 5.82 0 4.12-.91 5.81-2.17 5.81-1.25 0-2.16-1.69-2.16-5.81 0-4.11.91-5.82 2.16-5.82Zm15.31-.46c-1.63 0-2.94.78-3.58 2.24v-2.16c-.95.24-2.07.33-3.35.33-.46 0-.95-.03-1.43-.07v.48c1.11 0 1.47.64 1.47 2.02v11.49c0 1.23-.37 1.57-1.38 1.57v.49c.57-.03 1.77-.1 2.9-.1 1.56 0 3.09.07 3.86.1v-.49c-1.29 0-2.07-.37-2.07-1.79v-2.31c.58.49 1.42.75 2.36.75 3.23 0 5.33-2.34 5.33-6.81 0-3.83-1.78-5.74-4.11-5.74Zm-2.12 11.92c-.61 0-1.12-.23-1.46-.62v-8.28c.29-1.3 1.22-2.03 2.23-2.03 1.2 0 1.99 1.29 1.99 5.2 0 3.54-.71 5.73-2.76 5.73Zm20.49-15.98c-.85.04-2.28.06-3.62.06-1.47 0-2.85-.02-3.62-.06v.46c1.44.06 1.71.3 1.71 1.97v11.41c0 1.68-.25 1.91-1.71 1.98v.46c2.5-.07 5.95-.07 7.49-.07 1.55 0 3.7 0 5.26.07a43.17 43.17 0 0 1-.15-3.64c0-.78.02-1.49.06-2.02h-.52c-.45 3.07-2.07 5.13-4.19 5.13h-1.13c-1.21 0-1.45-.2-1.45-1.64v-11.68c0-1.67.31-1.91 1.87-1.97Zm12.52 4.06c-3.3 0-5.63 1.73-5.63 6.28 0 4.56 2.33 6.27 5.63 6.27 3.31 0 5.64-1.71 5.64-6.27 0-4.55-2.33-6.28-5.64-6.28Zm0 .46c1.26 0 2.17 1.71 2.17 5.82 0 4.12-.91 5.81-2.17 5.81-1.25 0-2.16-1.69-2.16-5.81 0-4.11.91-5.82 2.16-5.82Zm10.31 8.82c-.62 0-.94-.24-.94-.77 0-.58.54-.95 1.31-1.41.6.16 1.27.22 1.99.22 2.83 0 4.95-1.13 4.95-3.66 0-1.88-1.17-2.98-2.93-3.43-.01-.13-.01-.25-.01-.37s0-.23.01-.34c.07-.51.18-.9.34-1.17.29.81.74 1.29 1.72 1.29.89 0 1.57-.56 1.57-1.33 0-.87-.7-1.41-1.68-1.41-1.37 0-2.03.92-2.17 2.12-.08.37-.11.76-.08 1.14a9.31 9.31 0 0 0-1.72-.16c-2.83 0-4.94 1.12-4.94 3.66 0 1.73.99 2.81 2.52 3.32-2.19 1.03-2.93 1.93-2.93 3.23 0 1.83 1.7 2.13 2.57 2.13h.54c-1.22.85-3.48.76-3.48 2.22 0 1.1 1.63 1.98 5.1 1.98 4.57 0 6.66-2.58 6.66-4.79 0-1.88-1.44-2.47-3.11-2.47Zm2.36-8.86c.95 0 1.54.78 1.54 3.24s-.59 3.25-1.54 3.25c-.96 0-1.54-.79-1.54-3.25s.58-3.24 1.54-3.24Zm0 15.73c-1.45 0-2.58-.67-2.58-1.99 0-.49.24-1.3.78-1.82h3.95c1.05 0 1.33.34 1.33.96 0 1.81-1.63 2.85-3.48 2.85Zm12.81-16.15c-3.3 0-5.62 1.73-5.62 6.28 0 4.56 2.32 6.27 5.62 6.27 3.32 0 5.64-1.71 5.64-6.27 0-4.55-2.32-6.28-5.64-6.28Zm0 .46c1.26 0 2.17 1.71 2.17 5.82 0 4.12-.91 5.81-2.17 5.81-1.24 0-2.15-1.69-2.15-5.81 0-4.11.91-5.82 2.15-5.82Z"/></svg>